<svg xmlns="http://www.w3.org/2000/svg" width="24" height="24" viewBox="0 0 24 24"><defs><style>.a{fill:#fff;opacity:0;}.b{fill:#e24c2c;}</style></defs><g transform="translate(-336 -427)"><rect class="a" width="24" height="24" transform="translate(336 427)"/><path class="b" d="M10,0A10,10,0,1,0,20,10,9.971,9.971,0,0,0,10,0Zm1.455,10.182,3.409,3.409a.439.439,0,0,1,0,.636l-.636.636a.491.491,0,0,1-.318.136.413.413,0,0,1-.318-.136l-3.409-3.409a.22.22,0,0,0-.318,0L6.455,14.864A.491.491,0,0,1,6.136,15a.413.413,0,0,1-.318-.136l-.636-.636a.439.439,0,0,1,0-.636l3.409-3.409a.22.22,0,0,0,0-.318L5.182,6.455a.439.439,0,0,1,0-.636l.636-.636a.439.439,0,0,1,.636,0L9.864,8.591a.22.22,0,0,0,.318,0l3.409-3.409a.491.491,0,0,1,.318-.136.413.413,0,0,1,.318.136l.636.636a.439.439,0,0,1,0,.636L11.455,9.864C11.364,9.909,11.364,10.091,11.455,10.182Z" transform="translate(338 429)"/></g></svg>